<?xml version="1.0" encoding="UTF-8"?>
<svg xmlns="http://www.w3.org/2000/svg" xmlns:xlink="http://www.w3.org/1999/xlink" width="40pt" height="40pt" viewBox="0 0 40 40" version="1.1">
<g id="surface6866858">
<path style=" stroke:none;fill-rule:nonzero;fill:rgb(54.509804%,76.862745%,24.705882%);fill-opacity:1;" d="M 6 36.5 C 4.621094 36.5 3.5 35.378906 3.5 34 L 3.5 6 C 3.5 4.621094 4.621094 3.5 6 3.5 L 34 3.5 C 35.378906 3.5 36.5 4.621094 36.5 6 L 36.5 34 C 36.5 35.378906 35.378906 36.5 34 36.5 Z M 6 36.5 "/>
<path style=" stroke:none;fill-rule:nonzero;fill:rgb(27.843137%,53.333333%,78.039216%);fill-opacity:1;" d="M 34 4 C 35.101562 4 36 4.898438 36 6 L 36 34 C 36 35.101562 35.101562 36 34 36 L 6 36 C 4.898438 36 4 35.101562 4 34 L 4 6 C 4 4.898438 4.898438 4 6 4 L 34 4 M 34 3 L 6 3 C 4.34375 3 3 4.34375 3 6 L 3 34 C 3 35.65625 4.34375 37 6 37 L 34 37 C 35.65625 37 37 35.65625 37 34 L 37 6 C 37 4.34375 35.65625 3 34 3 Z M 34 3 "/>
<path style=" stroke:none;fill-rule:nonzero;fill:rgb(100%,100%,100%);fill-opacity:1;" d="M 20 11 L 23.125 17.101562 L 30 18 L 24.882812 22.691406 L 26.089844 29.308594 L 20 26.203125 L 13.898438 29.308594 L 15.117188 22.691406 L 10 18 L 17.152344 17.101562 Z M 20 11 "/>
</g>
</svg>
